<?xml version="1.0" encoding="UTF-8" standalone="no"?>
<svg
   xmlns:dc="http://purl.org/dc/elements/1.1/"
   xmlns:cc="http://creativecommons.org/ns#"
   xmlns:rdf="http://www.w3.org/1999/02/22-rdf-syntax-ns#"
   xmlns:svg="http://www.w3.org/2000/svg"
   xmlns="http://www.w3.org/2000/svg"
   xmlns:sodipodi="http://sodipodi.sourceforge.net/DTD/sodipodi-0.dtd"
   xmlns:inkscape="http://www.inkscape.org/namespaces/inkscape"
   sodipodi:docname="molssi-favicon-inverted.svg"
   inkscape:version="1.0beta2 (2b71d25, 2019-12-03)"
   id="svg968"
   version="1.1"
   viewBox="0 0 126.18045 130.87061"
   height="130.87061mm"
   width="126.18045mm">
  <defs
     id="defs962" />
  <sodipodi:namedview
     fit-margin-bottom="0"
     fit-margin-right="0"
     fit-margin-left="0"
     fit-margin-top="0"
     lock-margins="true"
     inkscape:window-maximized="0"
     inkscape:window-y="23"
     inkscape:window-x="0"
     inkscape:window-height="880"
     inkscape:window-width="1600"
     showgrid="false"
     inkscape:document-rotation="0"
     inkscape:current-layer="layer1"
     inkscape:document-units="mm"
     inkscape:cy="407.38383"
     inkscape:cx="230.845"
     inkscape:zoom="0.35"
     inkscape:pageshadow="2"
     inkscape:pageopacity="0.0"
     borderopacity="1.0"
     bordercolor="#666666"
     pagecolor="#ffffff"
     id="base" />
  <metadata
     id="metadata965">
    <rdf:RDF>
      <cc:Work
         rdf:about="">
        <dc:format>image/svg+xml</dc:format>
        <dc:type
           rdf:resource="http://purl.org/dc/dcmitype/StillImage" />
        <dc:title></dc:title>
      </cc:Work>
    </rdf:RDF>
  </metadata>
  <g
     transform="translate(-44.755593,-40.379694)"
     id="layer1"
     inkscape:groupmode="layer"
     inkscape:label="Layer 1">
    <g
       transform="matrix(0.83187983,0.4317139,0.4317139,-0.83187983,-436.25906,365.76744)"
       style="display:inline"
       id="g1552">
      <path
         d="m 379.27664,554.42927 c -6.025,0 -10.927,-4.902 -10.927,-10.927 0,-6.024 4.902,-10.926 10.927,-10.926 6.025,0 10.926,4.902 10.926,10.926 0,6.025 -4.901,10.927 -10.926,10.927 m 0,-29.881 c -10.451,0 -18.955,8.503 -18.955,18.954 0,10.453 8.504,18.955 18.955,18.955 10.451,0 18.954,-8.502 18.954,-18.955 0,-10.451 -8.503,-18.954 -18.954,-18.954"
         style="fill:#c6cac9;fill-opacity:1;fill-rule:nonzero;stroke:none"
         id="path102"
         inkscape:connector-curvature="0" />
      <path
         d="m 408.89324,593.47547 c -3.612,0 -6.55,-2.938 -6.55,-6.55 0,-3.612 2.938,-6.551 6.55,-6.551 3.612,0 6.55,2.939 6.55,6.551 0,3.612 -2.938,6.55 -6.55,6.55 m 0,-21.129 c -8.038,0 -14.578,6.54 -14.578,14.579 0,8.038 6.54,14.578 14.578,14.578 8.038,0 14.578,-6.54 14.578,-14.578 0,-8.039 -6.54,-14.579 -14.578,-14.579"
         style="fill:#c6cac9;fill-opacity:1;fill-rule:nonzero;stroke:none"
         id="path104"
         inkscape:connector-curvature="0" />
      <path
         d="m 392.93614,552.76047 -6.95,4.018 14.219,24.592 6.95,-4.019 z"
         style="fill:#c6cac9;fill-opacity:1;fill-rule:nonzero;stroke:none"
         id="path106"
         inkscape:connector-curvature="0" />
      <path
         d="m 385.23614,506.11657 -10.724,20.592 7.121,3.708 10.724,-20.593 z"
         style="fill:#c6cac9;fill-opacity:1;fill-rule:nonzero;stroke:none"
         id="path108"
         inkscape:connector-curvature="0" />
      <path
         d="m 357.10444,446.17517 c 0,-6.025 4.902,-10.927 10.926,-10.927 6.025,0 10.926,4.902 10.926,10.927 0,6.025 -4.901,10.926 -10.926,10.926 -6.024,0 -10.926,-4.901 -10.926,-10.926 m -8.028,0 c 0,10.451 8.502,18.954 18.954,18.954 10.452,0 18.955,-8.503 18.955,-18.954 0,-10.452 -8.503,-18.955 -18.955,-18.955 -10.452,0 -18.954,8.503 -18.954,18.955"
         style="fill:#c6cac9;fill-opacity:1;fill-rule:nonzero;stroke:none"
         id="path110"
         inkscape:connector-curvature="0" />
      <path
         d="m 380.00164,458.02347 14.064,24.33 -6.951,4.018 -14.063,-24.33 z"
         style="fill:#c6cac9;fill-opacity:1;fill-rule:nonzero;stroke:none"
         id="path112"
         inkscape:connector-curvature="0" />
      <path
         d="m 396.03634,505.23287 c -4.876,0 -8.842,-3.967 -8.842,-8.842 0,-4.877 3.966,-8.843 8.842,-8.843 4.876,0 8.842,3.966 8.842,8.843 0,4.875 -3.966,8.842 -8.842,8.842 m 0,-25.713 c -9.303,0 -16.871,7.568 -16.871,16.871 0,9.302 7.568,16.87 16.871,16.87 9.303,0 16.87,-7.568 16.87,-16.87 0,-9.303 -7.567,-16.871 -16.87,-16.871"
         style="fill:#ed1c24;fill-opacity:1;fill-rule:nonzero;stroke:none"
         id="path124"
         inkscape:connector-curvature="0" />
    </g>
  </g>
</svg>
